<svg xmlns="http://www.w3.org/2000/svg" xmlns:xlink="http://www.w3.org/1999/xlink" width="1200px" height="1200px" viewBox="0 0 1200 1200">
    <g id="6039bd38-61a2-4c76-ae05-4c6e6119fe5b">
<g style="">
		<g id="6039bd38-61a2-4c76-ae05-4c6e6119fe5b-child-0">
<path style="stroke: none; stroke-width: 0; stroke-dasharray: none; stroke-linecap: butt; stroke-dashoffset: 0; stroke-linejoin: miter; stroke-miterlimit: 4; fill: rgb(0,0,0); fill-rule: nonzero; opacity: 1;" d="M54.59094,354.7328c0,-71.4262 57.90237,-129.32857 129.32857,-129.32857c71.4262,0 129.32857,57.90237 129.32857,129.32857c0,71.4262 -57.90237,129.32857 -129.32857,129.32857c-71.4262,0 -129.32857,-57.90237 -129.32857,-129.32857z" stroke-linecap="round"/>
</g>
</g>
</g>
<g id="a8124b2f-5fba-4aaf-aa89-75b5c3cfd8ef">
<g style="">
		<g id="a8124b2f-5fba-4aaf-aa89-75b5c3cfd8ef-child-0">
<path style="stroke: none; stroke-width: 0; stroke-dasharray: none; stroke-linecap: butt; stroke-dashoffset: 0; stroke-linejoin: miter; stroke-miterlimit: 4; fill: rgb(247,247,247); fill-rule: nonzero; opacity: 1;" d="M100.53659,354.73285c0,-46.99246 37.33182,-85.08737 83.38295,-85.08737c46.05113,0 83.38295,38.09492 83.38295,85.08738c0,46.99246 -37.33182,85.08737 -83.38295,85.08737c-46.05113,0 -83.38295,-38.09492 -83.38295,-85.08737z" stroke-linecap="round"/>
</g>
</g>
</g>
<g id="23960966-c640-4e0e-b60d-cfdbef99ff94">
<g style="">
		<g id="23960966-c640-4e0e-b60d-cfdbef99ff94-child-0">
<path style="stroke: rgb(52,154,255); stroke-width: 5.983237; stroke-dasharray: none; stroke-linecap: round; stroke-dashoffset: 0; stroke-linejoin: miter; stroke-miterlimit: 10; fill: none; fill-rule: nonzero; opacity: 1;" d="M54.59094,354.7328c0,-71.4262 57.90237,-129.32857 129.32857,-129.32857c71.4262,0 129.32857,57.90237 129.32857,129.32857c0,71.4262 -57.90237,129.32857 -129.32857,129.32857c-71.4262,0 -129.32857,-57.90237 -129.32857,-129.32857z" stroke-linecap="round"/>
</g>
</g>
</g>
<g id="23fbcfd6-b086-482b-b157-8f12364efeba">
<g style="">
		<g id="23fbcfd6-b086-482b-b157-8f12364efeba-child-0">
<path style="stroke: rgb(52,154,255); stroke-width: 5.983237; stroke-dasharray: none; stroke-linecap: round; stroke-dashoffset: 0; stroke-linejoin: miter; stroke-miterlimit: 10; fill: none; fill-rule: nonzero; opacity: 1;" d="M98.83218,354.73285c0,-46.99246 38.09492,-85.08737 85.08738,-85.08737c46.99246,0 85.08738,38.09492 85.08738,85.08738c0,46.99246 -38.09492,85.08738 -85.08737,85.08738c-46.99246,0 -85.08737,-38.09492 -85.08737,-85.08737z" stroke-linecap="round"/>
</g>
</g>
</g>
<g id="f443797a-9ec5-470f-9a0b-02856c826fe1">
<g style="">
		<g id="d3e779df-0ad9-4ce6-86b6-4067c677a67b">
<path style="stroke: rgb(247,247,247); stroke-width: 2.864316; stroke-dasharray: none; stroke-linecap: round; stroke-dashoffset: 0; stroke-linejoin: round; stroke-miterlimit: 10; fill: rgb(255,255,255); fill-opacity: 0; fill-rule: nonzero; opacity: 1;" d="M288.86258,355.60588c0.01473,0.01906 0.02946,0.03813 0.04419,0.05806c0.026,0.06932 0.05199,0.13864 0.07799,0.20883c0.07625,0.20103 0.15337,0.40292 0.23136,0.60395c0.05112,0.12911 0.10225,0.25822 0.15337,0.38733c0.026,0.06412 0.05112,0.12824 0.07712,0.1915c0.05112,0.12391 0.10225,0.24782 0.15337,0.37086c0.026,0.06152 0.05112,0.12218 0.07712,0.1837c0.05112,0.11871 0.10225,0.23655 0.15424,0.35526c0.02513,0.05806 0.05112,0.11698 0.07712,0.17503c0.05112,0.11351 0.10311,0.22616 0.1551,0.33967c0.02513,0.05632 0.05112,0.11178 0.07712,0.1681c0.05286,0.10831 0.10485,0.21662 0.15684,0.32494c0.02686,0.05372 0.05286,0.10658 0.07885,0.1603c0.05286,0.10398 0.10658,0.20709 0.15944,0.31107c0.02599,0.05112 0.05286,0.10225 0.07972,0.15337c0.05372,0.09965 0.10831,0.19843 0.16204,0.29721c0.02686,0.04939 0.05459,0.09791 0.08145,0.1473c0.05546,0.09445 0.11005,0.18976 0.1655,0.28421c0.02773,0.04679 0.05546,0.09358 0.08318,0.14037c0.05632,0.09098 0.11351,0.18196 0.16983,0.27208c0.02859,0.04506 0.05719,0.09012 0.08492,0.13517c0.05806,0.08665 0.11698,0.1733 0.17503,0.25995c0.02859,0.04333 0.05806,0.08578 0.08752,0.12911c0.05979,0.08318 0.11958,0.16637 0.17937,0.24869c0.03033,0.04159 0.06065,0.08232 0.09098,0.12391c0.06152,0.07972 0.12391,0.15857 0.18543,0.23829c0.03119,0.03986 0.06239,0.07885 0.09358,0.11871c0.06412,0.07625 0.12824,0.1525 0.19236,0.22876c0.03206,0.03813 0.06412,0.07539 0.09705,0.11351c0.06585,0.07279 0.13257,0.14644 0.1993,0.21922c0.03293,0.03639 0.06672,0.07279 0.10051,0.10918c0.06845,0.07019 0.13777,0.14037 0.20709,0.21056c0.03466,0.03553 0.06932,0.07019 0.10398,0.10485c0.07192,0.06759 0.14384,0.13517 0.21576,0.20276c0.03639,0.03379 0.07192,0.06759 0.10831,0.10051c0.07539,0.06585 0.1499,0.13084 0.22442,0.19583c0.03813,0.03206 0.07539,0.06499 0.11351,0.09705c0.07799,0.06239 0.15597,0.12564 0.23395,0.1889c0.03899,0.03119 0.07885,0.06239 0.11784,0.09358c0.08145,0.06065 0.1629,0.12131 0.24435,0.18197c0.04073,0.03033 0.08232,0.06065 0.12304,0.09098c0.08492,0.05892 0.16983,0.11784 0.25475,0.17677c0.04332,0.02946 0.08578,0.05806 0.12911,0.08752c0.08838,0.05719 0.17763,0.11438 0.26602,0.17157c0.04506,0.02859 0.09012,0.05719 0.13431,0.08578c0.09272,0.05546 0.18543,0.11178 0.27815,0.16723c0.04679,0.02773 0.09358,0.05546 0.14037,0.08318c0.09705,0.05459 0.1941,0.10918 0.29114,0.16377c0.04939,0.02686 0.09791,0.05459 0.14731,0.08145c0.10051,0.05372 0.20189,0.10658 0.30327,0.1603c0.05112,0.02686 0.10225,0.05372 0.15424,0.07972c0.10571,0.05286 0.21143,0.10571 0.31714,0.15857c0.05372,0.026 0.10745,0.05199 0.16117,0.07799c0.11005,0.05199 0.22096,0.10398 0.33187,0.15597c0.05546,0.02599 0.11178,0.05199 0.1681,0.07799c0.11524,0.05112 0.23136,0.10311 0.3466,0.15424c0.05892,0.026 0.11698,0.05112 0.1759,0.07712c0.12044,0.05112 0.24175,0.10225 0.3622,0.15424c0.06152,0.02513 0.12218,0.05112 0.1837,0.07625c0.12564,0.05112 0.25215,0.10225 0.37866,0.15337c0.06412,0.026 0.12738,0.05112 0.1915,0.07712c0.13171,0.05112 0.26342,0.10225 0.39512,0.15424c0.20449,0.07712 0.40899,0.15424 0.61348,0.23222c0.0078,0.0026 0.0156,0.0052 0.02426,0.0078c0.01126,0.01213 0.02253,0.02426 0.03379,0.03553c0.0078,0.0234 0.01473,0.04679 0.02253,0.06932c0,0.00866 0,0.01733 0,0.02599c-0.00693,0.01473 -0.01386,0.02946 -0.02166,0.04419c-0.00433,0.00607 -0.00867,0.013 -0.01386,0.01993c-0.01386,0.0078 -0.02859,0.01646 -0.04332,0.02513c-0.06932,0.02513 -0.13951,0.05112 -0.20883,0.07712c-0.20189,0.07712 -0.40292,0.15424 -0.60482,0.23136c-0.12911,0.05112 -0.25822,0.10311 -0.38733,0.15424c-0.06412,0.02513 -0.12738,0.05112 -0.1915,0.07625c-0.12391,0.05112 -0.24695,0.10225 -0.37086,0.15424c-0.06065,0.02513 -0.12218,0.05112 -0.1837,0.07625c-0.11784,0.05112 -0.23655,0.10311 -0.3544,0.15424c-0.05892,0.02599 -0.11698,0.05112 -0.1759,0.07712c-0.11264,0.05199 -0.22616,0.10311 -0.33967,0.1551c-0.05546,0.026 -0.11178,0.05199 -0.16723,0.07799c-0.10831,0.05199 -0.21663,0.10398 -0.32494,0.15684c-0.05372,0.026 -0.10745,0.05199 -0.16117,0.07885c-0.10311,0.05286 -0.20709,0.10571 -0.31021,0.15857c-0.05112,0.02686 -0.10311,0.05372 -0.15424,0.07972c-0.09878,0.05459 -0.19756,0.10831 -0.29721,0.16204c-0.04852,0.02773 -0.09791,0.05459 -0.14644,0.08145c-0.09531,0.05546 -0.18976,0.11091 -0.28508,0.1655c-0.04679,0.02859 -0.09358,0.05632 -0.14037,0.08405c-0.09012,0.05632 -0.1811,0.11264 -0.27208,0.16897c-0.04506,0.02859 -0.08925,0.05719 -0.13431,0.08578c-0.08665,0.05806 -0.1733,0.11611 -0.26082,0.17417c-0.04246,0.02946 -0.08578,0.05892 -0.12824,0.08752c-0.08318,0.06065 -0.16637,0.12044 -0.24955,0.18023c-0.04073,0.03033 -0.08232,0.06065 -0.12304,0.09012c-0.07972,0.06239 -0.15944,0.12391 -0.23915,0.1863c-0.03899,0.03119 -0.07885,0.06239 -0.11784,0.09358c-0.07625,0.06325 -0.1525,0.12738 -0.22876,0.1915c-0.03813,0.03293 -0.07625,0.06499 -0.11351,0.09705c-0.07365,0.06672 -0.14644,0.13257 -0.22009,0.1993c-0.03639,0.03379 -0.07192,0.06759 -0.10831,0.10051c-0.07105,0.06932 -0.14124,0.13777 -0.21143,0.20709c-0.03466,0.03466 -0.06932,0.07019 -0.10398,0.10485c-0.06845,0.07192 -0.13604,0.14297 -0.20363,0.21489c-0.03293,0.03639 -0.06672,0.07279 -0.10051,0.10918c-0.06499,0.07452 -0.12998,0.14904 -0.19583,0.22442c-0.03206,0.03726 -0.06412,0.07539 -0.09618,0.11264c-0.06325,0.07799 -0.12651,0.15597 -0.1889,0.23396c-0.03119,0.03986 -0.06239,0.07885 -0.09358,0.11871c-0.06065,0.08145 -0.12218,0.16204 -0.18283,0.24349c-0.03033,0.04159 -0.05979,0.08232 -0.09012,0.12391c-0.05892,0.08492 -0.11784,0.16983 -0.17677,0.25475c-0.02946,0.04246 -0.05892,0.08578 -0.08838,0.12824c-0.05719,0.08925 -0.11438,0.17763 -0.17157,0.26602c-0.02859,0.04506 -0.05719,0.09012 -0.08492,0.13517c-0.05632,0.09272 -0.11178,0.18543 -0.1681,0.27815c-0.02773,0.04679 -0.05546,0.09358 -0.08318,0.14037c-0.05459,0.09705 -0.10918,0.1941 -0.16377,0.29028c-0.02686,0.04939 -0.05372,0.09878 -0.08145,0.1473c-0.05286,0.10138 -0.10658,0.20276 -0.1603,0.30414c-0.02599,0.05112 -0.05286,0.10225 -0.07972,0.15337c-0.05286,0.10571 -0.10485,0.21229 -0.1577,0.31801c-0.026,0.05286 -0.05286,0.10658 -0.07885,0.1603c-0.05199,0.11091 -0.10398,0.22182 -0.15597,0.33187c-0.02599,0.05632 -0.05112,0.11178 -0.07712,0.1681c-0.05199,0.11611 -0.10311,0.23136 -0.1551,0.34747c-0.02513,0.05806 -0.05112,0.11698 -0.07712,0.17503c-0.05112,0.12131 -0.10225,0.24175 -0.15337,0.36306c-0.02599,0.06065 -0.05112,0.12218 -0.07712,0.18283c-0.05112,0.12651 -0.10225,0.25302 -0.15337,0.37866c-0.02513,0.06412 -0.05112,0.12824 -0.07625,0.1915c-0.05199,0.13257 -0.10311,0.26428 -0.15424,0.39599c-0.07712,0.20449 -0.1551,0.40899 -0.23222,0.61262c-0.0026,0.00866 -0.00607,0.01646 -0.00867,0.02426c-0.01213,0.01126 -0.02426,0.02253 -0.03553,0.03379c-0.0234,0.0078 -0.04679,0.01473 -0.07019,0.02166c-0.0078,0 -0.01646,0 -0.02513,0c-0.01473,-0.00693 -0.02946,-0.01386 -0.04419,-0.02166c-0.01473,-0.01906 -0.02946,-0.03813 -0.04419,-0.05806c-0.02599,-0.06932 -0.05199,-0.13864 -0.07799,-0.20883c-0.07625,-0.20103 -0.15337,-0.40292 -0.23136,-0.60395c-0.05112,-0.12911 -0.10225,-0.25822 -0.15337,-0.38733c-0.026,-0.06412 -0.05112,-0.12824 -0.07712,-0.1915c-0.05112,-0.12391 -0.10225,-0.24782 -0.15337,-0.37086c-0.02599,-0.06152 -0.05112,-0.12218 -0.07712,-0.1837c-0.05112,-0.11871 -0.10225,-0.23655 -0.15424,-0.35526c-0.02513,-0.05806 -0.05112,-0.11698 -0.07712,-0.17503c-0.05112,-0.11351 -0.10311,-0.22616 -0.1551,-0.33967c-0.02513,-0.05632 -0.05112,-0.11178 -0.07712,-0.1681c-0.05286,-0.10831 -0.10485,-0.21662 -0.15684,-0.32494c-0.02686,-0.05372 -0.05286,-0.10658 -0.07885,-0.1603c-0.05286,-0.10398 -0.10658,-0.20709 -0.15944,-0.31107c-0.026,-0.05112 -0.05286,-0.10225 -0.07972,-0.15337c-0.05372,-0.09965 -0.10831,-0.19843 -0.16204,-0.29721c-0.02686,-0.04939 -0.05459,-0.09791 -0.08145,-0.1473c-0.05546,-0.09445 -0.11005,-0.18976 -0.1655,-0.28421c-0.02773,-0.04679 -0.05546,-0.09358 -0.08318,-0.14037c-0.05632,-0.09098 -0.11351,-0.18196 -0.16983,-0.27208c-0.02859,-0.04506 -0.05719,-0.09012 -0.08492,-0.13517c-0.05806,-0.08665 -0.11698,-0.1733 -0.17503,-0.25995c-0.02859,-0.04333 -0.05806,-0.08578 -0.08752,-0.12911c-0.05979,-0.08318 -0.11958,-0.16637 -0.17937,-0.24869c-0.03033,-0.04159 -0.06066,-0.08232 -0.09098,-0.12391c-0.06152,-0.07972 -0.12391,-0.15857 -0.18543,-0.23829c-0.03119,-0.03986 -0.06239,-0.07885 -0.09358,-0.11871c-0.06412,-0.07625 -0.12824,-0.1525 -0.19236,-0.22876c-0.03206,-0.03813 -0.06412,-0.07539 -0.09705,-0.11351c-0.06585,-0.07279 -0.13257,-0.14644 -0.1993,-0.21922c-0.03293,-0.03639 -0.06672,-0.07279 -0.10051,-0.10918c-0.06845,-0.07019 -0.13777,-0.14037 -0.20709,-0.21056c-0.03466,-0.03553 -0.06932,-0.07019 -0.10398,-0.10485c-0.07192,-0.06759 -0.14384,-0.13517 -0.21576,-0.20276c-0.03639,-0.03379 -0.07192,-0.06759 -0.10831,-0.10051c-0.07539,-0.06585 -0.1499,-0.13084 -0.22442,-0.19583c-0.03813,-0.03206 -0.07539,-0.06499 -0.11351,-0.09705c-0.07799,-0.06239 -0.15597,-0.12564 -0.23396,-0.1889c-0.03899,-0.03119 -0.07885,-0.06239 -0.11784,-0.09358c-0.08145,-0.06065 -0.1629,-0.12131 -0.24435,-0.18197c-0.04073,-0.03033 -0.08232,-0.06065 -0.12304,-0.09098c-0.08492,-0.05892 -0.16983,-0.11784 -0.25475,-0.17677c-0.04332,-0.02946 -0.08578,-0.05806 -0.12911,-0.08752c-0.08838,-0.05719 -0.17763,-0.11438 -0.26602,-0.17157c-0.04506,-0.02859 -0.09012,-0.05719 -0.13431,-0.08578c-0.09272,-0.05546 -0.18543,-0.11178 -0.27815,-0.16723c-0.04679,-0.02773 -0.09358,-0.05546 -0.14124,-0.08318c-0.09618,-0.05459 -0.19323,-0.10918 -0.29028,-0.16377c-0.04939,-0.02686 -0.09791,-0.05459 -0.1473,-0.08145c-0.10138,-0.05372 -0.20189,-0.10658 -0.30328,-0.1603c-0.05112,-0.02686 -0.10311,-0.05372 -0.15424,-0.07972c-0.10571,-0.05286 -0.21143,-0.10571 -0.31714,-0.15857c-0.05372,-0.026 -0.10745,-0.05199 -0.16117,-0.07799c-0.11005,-0.05199 -0.22096,-0.10398 -0.33187,-0.15597c-0.05546,-0.02599 -0.11178,-0.05199 -0.1681,-0.07799c-0.11524,-0.05112 -0.23136,-0.10311 -0.3466,-0.15424c-0.05892,-0.026 -0.11698,-0.05112 -0.1759,-0.07712c-0.12044,-0.05112 -0.24175,-0.10225 -0.3622,-0.15424c-0.06152,-0.02513 -0.12218,-0.05112 -0.1837,-0.07625c-0.12564,-0.05112 -0.25215,-0.10225 -0.37866,-0.15337c-0.06412,-0.026 -0.12738,-0.05112 -0.1915,-0.07712c-0.13171,-0.05112 -0.26342,-0.10225 -0.39512,-0.15424c-0.20449,-0.07712 -0.40899,-0.15424 -0.61348,-0.23222c-0.0078,-0.0026 -0.0156,-0.0052 -0.02426,-0.00867c-0.01126,-0.01126 -0.02253,-0.0234 -0.03379,-0.03553c-0.00693,-0.0234 -0.01473,-0.04592 -0.02166,-0.06932c0,-0.00867 0,-0.01733 0,-0.02513c0.00693,-0.01473 0.01473,-0.02946 0.02166,-0.04419c0.01993,-0.01473 0.03899,-0.02946 0.05806,-0.04506c0.06932,-0.02513 0.13951,-0.05112 0.20883,-0.07712c0.20189,-0.07712 0.40292,-0.15424 0.60482,-0.23136c0.12911,-0.05112 0.25822,-0.10311 0.38733,-0.15424c0.06412,-0.02513 0.12738,-0.05112 0.1915,-0.07625c0.12391,-0.05112 0.24695,-0.10225 0.37086,-0.15337c0.06065,-0.02599 0.12218,-0.05199 0.1837,-0.07712c0.11784,-0.05112 0.23655,-0.10311 0.3544,-0.15424c0.05892,-0.02599 0.11698,-0.05112 0.1759,-0.07712c0.11264,-0.05199 0.22616,-0.10311 0.33967,-0.1551c0.05546,-0.026 0.11178,-0.05199 0.16723,-0.07799c0.10831,-0.05199 0.21662,-0.10398 0.32494,-0.15597c0.05372,-0.02686 0.10745,-0.05286 0.16117,-0.07885c0.10311,-0.05286 0.20709,-0.10658 0.31021,-0.15944c0.05112,-0.02686 0.10311,-0.05286 0.15424,-0.07972c0.09878,-0.05372 0.19756,-0.10831 0.29721,-0.16204c0.04852,-0.02686 0.09791,-0.05459 0.14644,-0.08145c0.09532,-0.05459 0.18976,-0.11005 0.28421,-0.1655c0.04766,-0.02773 0.09445,-0.05546 0.14124,-0.08318c0.09012,-0.05632 0.1811,-0.11265 0.27208,-0.16983c0.04419,-0.02773 0.08925,-0.05632 0.13431,-0.08492c0.08665,-0.05806 0.1733,-0.11611 0.25995,-0.17417c0.04333,-0.02946 0.08665,-0.05892 0.12911,-0.08752c0.08318,-0.06065 0.16637,-0.12044 0.24955,-0.18023c0.04073,-0.03033 0.08232,-0.05979 0.12304,-0.09012c0.07972,-0.06239 0.15944,-0.12391 0.23915,-0.18543c0.03899,-0.03119 0.07885,-0.06239 0.11784,-0.09358c0.07625,-0.06412 0.1525,-0.12824 0.22876,-0.19236c0.03813,-0.03206 0.07539,-0.06499 0.11351,-0.09705c0.07365,-0.06585 0.14644,-0.13257 0.22009,-0.1993c0.03553,-0.03293 0.07192,-0.06672 0.10831,-0.10051c0.07019,-0.06845 0.14037,-0.13777 0.21143,-0.20709c0.03466,-0.03466 0.06932,-0.06932 0.10398,-0.10398c0.06759,-0.07192 0.13517,-0.14384 0.20276,-0.21576c0.03379,-0.03639 0.06759,-0.07192 0.10051,-0.10831c0.06585,-0.07452 0.13084,-0.1499 0.19583,-0.22442c0.03206,-0.03813 0.06499,-0.07539 0.09705,-0.11351c0.06325,-0.07799 0.12564,-0.15597 0.1889,-0.23395c0.03119,-0.03899 0.06239,-0.07885 0.09358,-0.11784c0.06065,-0.08145 0.12131,-0.1629 0.18197,-0.24435c0.03033,-0.04073 0.06065,-0.08145 0.09098,-0.12304c0.05892,-0.08492 0.11784,-0.16983 0.17677,-0.25475c0.02946,-0.04246 0.05806,-0.08578 0.08752,-0.12911c0.05719,-0.08838 0.11438,-0.17677 0.17157,-0.26602c0.02859,-0.04419 0.05719,-0.08925 0.08578,-0.13431c0.05546,-0.09272 0.11178,-0.18543 0.16723,-0.27815c0.02773,-0.04679 0.05546,-0.09358 0.08318,-0.14037c0.05459,-0.09705 0.10918,-0.1941 0.16377,-0.29114c0.02686,-0.04852 0.05372,-0.09791 0.08145,-0.14644c0.05286,-0.10138 0.10658,-0.20276 0.1603,-0.30414c0.02599,-0.05112 0.05286,-0.10225 0.07972,-0.15424c0.05286,-0.10571 0.10485,-0.21143 0.1577,-0.31714c0.026,-0.05372 0.05199,-0.10745 0.07885,-0.16117c0.05199,-0.11005 0.10398,-0.22096 0.1551,-0.33187c0.026,-0.05632 0.05199,-0.11178 0.07799,-0.1681c0.05199,-0.11524 0.10311,-0.23136 0.15424,-0.3466c0.02599,-0.05892 0.05199,-0.11698 0.07712,-0.1759c0.05112,-0.12131 0.10225,-0.24175 0.15424,-0.36306c0.02513,-0.06065 0.05112,-0.12218 0.07625,-0.18283c0.05112,-0.12651 0.10225,-0.25302 0.15337,-0.37953c0.02599,-0.06325 0.05112,-0.12738 0.07712,-0.1915c0.05112,-0.13171 0.10225,-0.26342 0.15337,-0.39599c0.07799,-0.20449 0.1551,-0.40899 0.23222,-0.61348c0.0026,-0.0078 0.00607,-0.0156 0.00867,-0.0234c0.01213,-0.01126 0.02426,-0.02253 0.03553,-0.03379c0.0234,-0.0078 0.04679,-0.01473 0.06932,-0.02166c0.00867,0 0.01733,0 0.026,0c0.01473,0.00693 0.02946,0.01386 0.04419,0.02166z" stroke-linecap="round"/>
</g>
		<g id="f443797a-9ec5-470f-9a0b-02856c826fe1-child-0">
<path style="stroke: rgb(193,193,193); stroke-width: 0; stroke-dasharray: none; stroke-linecap: butt; stroke-dashoffset: 0; stroke-linejoin: miter; stroke-miterlimit: 4; fill: none; fill-rule: evenodd; opacity: 1;" transform="matrix(0.08665 0 0 0.08665 288.794125 367.050613) matrix(1 0 0 1 0 0)  translate(-132.330059, -132.335)" d="M 263.75 133.65 C 186.61 162.34 162.34 186.65 133.65 263.75 C 133.45 264.30 132.92 264.67 132.34 264.67 C 131.75 264.67 131.22 264.30 131.02 263.75 C 102.33 186.61 78.02 162.34 0.92 133.65 C 0.37 133.45 0.00 132.92 0.00 132.34 C 0.00 131.75 0.37 131.22 0.92 131.02 C 78.06 102.33 102.33 78.06 131.00 0.92 C 131.20 0.37 131.73 0.00 132.31 0.00 C 132.90 0.00 133.43 0.37 133.63 0.92 C 162.32 78.06 186.63 102.33 263.73 131.02 C 264.28 131.22 264.66 131.74 264.66 132.33 C 264.66 132.92 264.30 133.44 263.75 133.65 Z" stroke-linecap="round"/>
</g>
</g>
</g>
<g id="5fec6870-2276-40f3-a7b0-e374b7c69976">
<g style="">
		<g id="1fd25865-6d49-4b59-8f51-15603e954090">
<path style="stroke: rgb(247,247,247); stroke-width: 2.864316; stroke-dasharray: none; stroke-linecap: round; stroke-dashoffset: 0; stroke-linejoin: round; stroke-miterlimit: 10; fill: rgb(255,255,255); fill-opacity: 0; fill-rule: nonzero; opacity: 1;" d="M78.9726,355.60588c0.01473,0.01906 0.02946,0.03813 0.04419,0.05806c0.02599,0.06932 0.05199,0.13864 0.07798,0.20883c0.07625,0.20103 0.15337,0.40292 0.23136,0.60395c0.05112,0.12911 0.10225,0.25822 0.15337,0.38733c0.02599,0.06412 0.05112,0.12824 0.07712,0.1915c0.05112,0.12391 0.10225,0.24782 0.15337,0.37086c0.02599,0.06152 0.05112,0.12218 0.07712,0.1837c0.05112,0.11871 0.10225,0.23655 0.15424,0.35526c0.02513,0.05806 0.05112,0.11698 0.07712,0.17503c0.05112,0.11351 0.10311,0.22616 0.1551,0.33967c0.02513,0.05632 0.05112,0.11178 0.07712,0.1681c0.05286,0.10831 0.10485,0.21662 0.15684,0.32494c0.02686,0.05372 0.05286,0.10658 0.07885,0.1603c0.05286,0.10398 0.10658,0.20709 0.15944,0.31107c0.026,0.05112 0.05286,0.10225 0.07972,0.15337c0.05372,0.09965 0.10831,0.19843 0.16204,0.29721c0.02686,0.04939 0.05459,0.09791 0.08145,0.1473c0.05546,0.09445 0.11005,0.18976 0.1655,0.28421c0.02773,0.04679 0.05546,0.09358 0.08318,0.14037c0.05632,0.09098 0.11351,0.18196 0.16983,0.27208c0.02859,0.04506 0.05719,0.09012 0.08492,0.13517c0.05806,0.08665 0.11698,0.1733 0.17503,0.25995c0.02859,0.04333 0.05806,0.08578 0.08752,0.12911c0.05979,0.08318 0.11958,0.16637 0.17937,0.24869c0.03033,0.04159 0.06065,0.08232 0.09098,0.12391c0.06152,0.07972 0.12391,0.15857 0.18543,0.23829c0.03119,0.03986 0.06239,0.07885 0.09358,0.11871c0.06412,0.07625 0.12824,0.1525 0.19236,0.22876c0.03206,0.03813 0.06412,0.07539 0.09705,0.11351c0.06585,0.07279 0.13257,0.14644 0.19929,0.21922c0.03293,0.03639 0.06672,0.07279 0.10051,0.10918c0.06845,0.07019 0.13777,0.14037 0.20709,0.21056c0.03466,0.03553 0.06932,0.07019 0.10398,0.10485c0.07192,0.06759 0.14384,0.13517 0.21576,0.20276c0.03639,0.03379 0.07192,0.06759 0.10831,0.10051c0.07539,0.06585 0.1499,0.13084 0.22442,0.19583c0.03813,0.03206 0.07539,0.06499 0.11351,0.09705c0.07798,0.06239 0.15597,0.12564 0.23396,0.1889c0.03899,0.03119 0.07885,0.06239 0.11784,0.09358c0.08145,0.06065 0.1629,0.12131 0.24435,0.18197c0.04073,0.03033 0.08232,0.06065 0.12304,0.09098c0.08492,0.05892 0.16983,0.11784 0.25475,0.17677c0.04333,0.02946 0.08578,0.05806 0.12911,0.08752c0.08838,0.05719 0.17763,0.11438 0.26602,0.17157c0.04506,0.02859 0.09012,0.05719 0.13431,0.08578c0.09272,0.05546 0.18543,0.11178 0.27815,0.16723c0.04679,0.02773 0.09358,0.05546 0.14037,0.08318c0.09705,0.05459 0.1941,0.10918 0.29114,0.16377c0.04939,0.02686 0.09791,0.05459 0.14731,0.08145c0.10051,0.05372 0.20189,0.10658 0.30327,0.1603c0.05112,0.02686 0.10225,0.05372 0.15424,0.07972c0.10571,0.05286 0.21143,0.10571 0.31714,0.15857c0.05372,0.026 0.10745,0.05199 0.16117,0.07799c0.11005,0.05199 0.22096,0.10398 0.33187,0.15597c0.05546,0.02599 0.11178,0.05199 0.1681,0.07799c0.11524,0.05112 0.23136,0.10311 0.3466,0.15424c0.05892,0.026 0.11698,0.05112 0.1759,0.07712c0.12044,0.05112 0.24175,0.10225 0.3622,0.15424c0.06152,0.02513 0.12218,0.05112 0.1837,0.07625c0.12564,0.05112 0.25215,0.10225 0.37866,0.15337c0.06412,0.026 0.12738,0.05112 0.1915,0.07712c0.13171,0.05112 0.26342,0.10225 0.39512,0.15424c0.20449,0.07712 0.40899,0.15424 0.61348,0.23222c0.0078,0.0026 0.0156,0.0052 0.02426,0.0078c0.01126,0.01213 0.02253,0.02426 0.03379,0.03553c0.0078,0.0234 0.01473,0.04679 0.02253,0.06932c0,0.00866 0,0.01733 0,0.02599c-0.00693,0.01473 -0.01386,0.02946 -0.02166,0.04419c-0.00433,0.00607 -0.00867,0.013 -0.01386,0.01993c-0.01386,0.0078 -0.02859,0.01646 -0.04333,0.02513c-0.06932,0.02513 -0.13951,0.05112 -0.20883,0.07712c-0.20189,0.07712 -0.40292,0.15424 -0.60482,0.23136c-0.12911,0.05112 -0.25822,0.10311 -0.38733,0.15424c-0.06412,0.02513 -0.12738,0.05112 -0.1915,0.07625c-0.12391,0.05112 -0.24695,0.10225 -0.37086,0.15424c-0.06066,0.02513 -0.12218,0.05112 -0.1837,0.07625c-0.11784,0.05112 -0.23655,0.10311 -0.3544,0.15424c-0.05892,0.02599 -0.11698,0.05112 -0.1759,0.07712c-0.11265,0.05199 -0.22616,0.10311 -0.33967,0.1551c-0.05546,0.026 -0.11178,0.05199 -0.16723,0.07799c-0.10831,0.05199 -0.21663,0.10398 -0.32494,0.15684c-0.05372,0.026 -0.10745,0.05199 -0.16117,0.07885c-0.10311,0.05286 -0.20709,0.10571 -0.31021,0.15857c-0.05112,0.02686 -0.10311,0.05372 -0.15424,0.07972c-0.09878,0.05459 -0.19756,0.10831 -0.29721,0.16204c-0.04852,0.02773 -0.09791,0.05459 -0.14644,0.08145c-0.09531,0.05546 -0.18976,0.11091 -0.28508,0.1655c-0.04679,0.02859 -0.09358,0.05632 -0.14037,0.08405c-0.09012,0.05632 -0.1811,0.11264 -0.27208,0.16897c-0.04506,0.02859 -0.08925,0.05719 -0.13431,0.08578c-0.08665,0.05806 -0.1733,0.11611 -0.26082,0.17417c-0.04246,0.02946 -0.08578,0.05892 -0.12824,0.08752c-0.08318,0.06065 -0.16637,0.12044 -0.24955,0.18023c-0.04073,0.03033 -0.08232,0.06065 -0.12304,0.09012c-0.07972,0.06239 -0.15944,0.12391 -0.23915,0.1863c-0.03899,0.03119 -0.07885,0.06239 -0.11784,0.09358c-0.07625,0.06325 -0.1525,0.12738 -0.22876,0.1915c-0.03813,0.03293 -0.07625,0.06499 -0.11351,0.09705c-0.07365,0.06672 -0.14644,0.13257 -0.22009,0.1993c-0.03639,0.03379 -0.07192,0.06759 -0.10831,0.10051c-0.07105,0.06932 -0.14124,0.13777 -0.21143,0.20709c-0.03466,0.03466 -0.06932,0.07019 -0.10398,0.10485c-0.06845,0.07192 -0.13604,0.14297 -0.20363,0.21489c-0.03293,0.03639 -0.06672,0.07279 -0.10051,0.10918c-0.06499,0.07452 -0.12998,0.14904 -0.19583,0.22442c-0.03206,0.03726 -0.06412,0.07539 -0.09618,0.11264c-0.06325,0.07799 -0.12651,0.15597 -0.1889,0.23396c-0.03119,0.03986 -0.06239,0.07885 -0.09358,0.11871c-0.06065,0.08145 -0.12218,0.16204 -0.18283,0.24349c-0.03033,0.04159 -0.05979,0.08232 -0.09012,0.12391c-0.05892,0.08492 -0.11784,0.16983 -0.17677,0.25475c-0.02946,0.04246 -0.05892,0.08578 -0.08838,0.12824c-0.05719,0.08925 -0.11438,0.17763 -0.17157,0.26602c-0.02859,0.04506 -0.05719,0.09012 -0.08492,0.13517c-0.05632,0.09272 -0.11178,0.18543 -0.1681,0.27815c-0.02773,0.04679 -0.05546,0.09358 -0.08318,0.14037c-0.05459,0.09705 -0.10918,0.1941 -0.16377,0.29028c-0.02686,0.04939 -0.05372,0.09878 -0.08145,0.1473c-0.05286,0.10138 -0.10658,0.20276 -0.1603,0.30414c-0.02599,0.05112 -0.05286,0.10225 -0.07972,0.15337c-0.05286,0.10571 -0.10485,0.21229 -0.1577,0.31801c-0.02599,0.05286 -0.05286,0.10658 -0.07885,0.1603c-0.05199,0.11091 -0.10398,0.22182 -0.15597,0.33187c-0.026,0.05632 -0.05112,0.11178 -0.07712,0.1681c-0.05199,0.11611 -0.10311,0.23136 -0.1551,0.34747c-0.02513,0.05806 -0.05112,0.11698 -0.07712,0.17503c-0.05112,0.12131 -0.10225,0.24175 -0.15337,0.36306c-0.026,0.06065 -0.05112,0.12218 -0.07712,0.18283c-0.05112,0.12651 -0.10225,0.25302 -0.15337,0.37866c-0.02513,0.06412 -0.05112,0.12824 -0.07625,0.1915c-0.05199,0.13257 -0.10311,0.26428 -0.15424,0.39599c-0.07712,0.20449 -0.1551,0.40899 -0.23222,0.61262c-0.0026,0.00866 -0.00607,0.01646 -0.00867,0.02426c-0.01213,0.01126 -0.02426,0.02253 -0.03553,0.03379c-0.0234,0.0078 -0.04679,0.01473 -0.07019,0.02166c-0.0078,0 -0.01646,0 -0.02513,0c-0.01473,-0.00693 -0.02946,-0.01386 -0.04419,-0.02166c-0.01473,-0.01906 -0.02946,-0.03813 -0.04419,-0.05806c-0.02599,-0.06932 -0.05199,-0.13864 -0.07798,-0.20883c-0.07625,-0.20103 -0.15337,-0.40292 -0.23136,-0.60395c-0.05112,-0.12911 -0.10225,-0.25822 -0.15337,-0.38733c-0.02599,-0.06412 -0.05112,-0.12824 -0.07712,-0.1915c-0.05112,-0.12391 -0.10225,-0.24782 -0.15337,-0.37086c-0.02599,-0.06152 -0.05112,-0.12218 -0.07712,-0.1837c-0.05112,-0.11871 -0.10225,-0.23655 -0.15424,-0.35526c-0.02513,-0.05806 -0.05112,-0.11698 -0.07712,-0.17503c-0.05112,-0.11351 -0.10311,-0.22616 -0.1551,-0.33967c-0.02513,-0.05632 -0.05112,-0.11178 -0.07712,-0.1681c-0.05286,-0.10831 -0.10485,-0.21662 -0.15684,-0.32494c-0.02686,-0.05372 -0.05286,-0.10658 -0.07885,-0.1603c-0.05286,-0.10398 -0.10658,-0.20709 -0.15944,-0.31107c-0.026,-0.05112 -0.05286,-0.10225 -0.07972,-0.15337c-0.05372,-0.09965 -0.10831,-0.19843 -0.16204,-0.29721c-0.02686,-0.04939 -0.05459,-0.09791 -0.08145,-0.1473c-0.05546,-0.09445 -0.11005,-0.18976 -0.1655,-0.28421c-0.02773,-0.04679 -0.05546,-0.09358 -0.08318,-0.14037c-0.05632,-0.09098 -0.11351,-0.18196 -0.16983,-0.27208c-0.02859,-0.04506 -0.05719,-0.09012 -0.08492,-0.13517c-0.05806,-0.08665 -0.11698,-0.1733 -0.17503,-0.25995c-0.02859,-0.04333 -0.05806,-0.08578 -0.08752,-0.12911c-0.05979,-0.08318 -0.11958,-0.16637 -0.17937,-0.24869c-0.03033,-0.04159 -0.06065,-0.08232 -0.09098,-0.12391c-0.06152,-0.07972 -0.12391,-0.15857 -0.18543,-0.23829c-0.03119,-0.03986 -0.06239,-0.07885 -0.09358,-0.11871c-0.06412,-0.07625 -0.12824,-0.1525 -0.19236,-0.22876c-0.03206,-0.03813 -0.06412,-0.07539 -0.09705,-0.11351c-0.06585,-0.07279 -0.13257,-0.14644 -0.19929,-0.21922c-0.03293,-0.03639 -0.06672,-0.07279 -0.10051,-0.10918c-0.06845,-0.07019 -0.13777,-0.14037 -0.20709,-0.21056c-0.03466,-0.03553 -0.06932,-0.07019 -0.10398,-0.10485c-0.07192,-0.06759 -0.14384,-0.13517 -0.21576,-0.20276c-0.03639,-0.03379 -0.07192,-0.06759 -0.10831,-0.10051c-0.07539,-0.06585 -0.1499,-0.13084 -0.22442,-0.19583c-0.03813,-0.03206 -0.07539,-0.06499 -0.11351,-0.09705c-0.07798,-0.06239 -0.15597,-0.12564 -0.23395,-0.1889c-0.03899,-0.03119 -0.07885,-0.06239 -0.11784,-0.09358c-0.08145,-0.06065 -0.1629,-0.12131 -0.24435,-0.18197c-0.04073,-0.03033 -0.08232,-0.06065 -0.12304,-0.09098c-0.08492,-0.05892 -0.16983,-0.11784 -0.25475,-0.17677c-0.04333,-0.02946 -0.08578,-0.05806 -0.12911,-0.08752c-0.08838,-0.05719 -0.17763,-0.11438 -0.26602,-0.17157c-0.04506,-0.02859 -0.09012,-0.05719 -0.13431,-0.08578c-0.09272,-0.05546 -0.18543,-0.11178 -0.27815,-0.16723c-0.04679,-0.02773 -0.09358,-0.05546 -0.14124,-0.08318c-0.09618,-0.05459 -0.19323,-0.10918 -0.29028,-0.16377c-0.04939,-0.02686 -0.09791,-0.05459 -0.14731,-0.08145c-0.10138,-0.05372 -0.20189,-0.10658 -0.30327,-0.1603c-0.05112,-0.02686 -0.10311,-0.05372 -0.15424,-0.07972c-0.10571,-0.05286 -0.21143,-0.10571 -0.31714,-0.15857c-0.05372,-0.026 -0.10745,-0.05199 -0.16117,-0.07799c-0.11005,-0.05199 -0.22096,-0.10398 -0.33187,-0.15597c-0.05546,-0.02599 -0.11178,-0.05199 -0.1681,-0.07799c-0.11524,-0.05112 -0.23136,-0.10311 -0.3466,-0.15424c-0.05892,-0.026 -0.11698,-0.05112 -0.1759,-0.07712c-0.12044,-0.05112 -0.24175,-0.10225 -0.3622,-0.15424c-0.06152,-0.02513 -0.12218,-0.05112 -0.1837,-0.07625c-0.12564,-0.05112 -0.25215,-0.10225 -0.37866,-0.15337c-0.06412,-0.026 -0.12738,-0.05112 -0.1915,-0.07712c-0.13171,-0.05112 -0.26342,-0.10225 -0.39512,-0.15424c-0.20449,-0.07712 -0.40899,-0.15424 -0.61348,-0.23222c-0.0078,-0.0026 -0.0156,-0.0052 -0.02426,-0.00867c-0.01126,-0.01126 -0.02253,-0.0234 -0.03379,-0.03553c-0.00693,-0.0234 -0.01473,-0.04592 -0.02166,-0.06932c0,-0.00867 0,-0.01733 0,-0.02513c0.00693,-0.01473 0.01473,-0.02946 0.02166,-0.04419c0.01993,-0.01473 0.03899,-0.02946 0.05806,-0.04506c0.06932,-0.02513 0.13951,-0.05112 0.20883,-0.07712c0.20189,-0.07712 0.40292,-0.15424 0.60482,-0.23136c0.12911,-0.05112 0.25822,-0.10311 0.38733,-0.15424c0.06412,-0.02513 0.12738,-0.05112 0.1915,-0.07625c0.12391,-0.05112 0.24695,-0.10225 0.37086,-0.15337c0.06066,-0.02599 0.12218,-0.05199 0.1837,-0.07712c0.11784,-0.05112 0.23655,-0.10311 0.3544,-0.15424c0.05892,-0.02599 0.11698,-0.05112 0.1759,-0.07712c0.11265,-0.05199 0.22616,-0.10311 0.33967,-0.1551c0.05546,-0.026 0.11178,-0.05199 0.16723,-0.07799c0.10831,-0.05199 0.21663,-0.10398 0.32494,-0.15597c0.05372,-0.02686 0.10745,-0.05286 0.16117,-0.07885c0.10311,-0.05286 0.20709,-0.10658 0.31021,-0.15944c0.05112,-0.02686 0.10311,-0.05286 0.15424,-0.07972c0.09878,-0.05372 0.19756,-0.10831 0.29721,-0.16204c0.04852,-0.02686 0.09791,-0.05459 0.14644,-0.08145c0.09531,-0.05459 0.18976,-0.11005 0.28421,-0.1655c0.04766,-0.02773 0.09445,-0.05546 0.14124,-0.08318c0.09012,-0.05632 0.1811,-0.11265 0.27208,-0.16983c0.04419,-0.02773 0.08925,-0.05632 0.13431,-0.08492c0.08665,-0.05806 0.1733,-0.11611 0.25995,-0.17417c0.04332,-0.02946 0.08665,-0.05892 0.12911,-0.08752c0.08318,-0.06065 0.16637,-0.12044 0.24955,-0.18023c0.04073,-0.03033 0.08232,-0.05979 0.12304,-0.09012c0.07972,-0.06239 0.15944,-0.12391 0.23915,-0.18543c0.03899,-0.03119 0.07885,-0.06239 0.11784,-0.09358c0.07625,-0.06412 0.1525,-0.12824 0.22876,-0.19236c0.03813,-0.03206 0.07539,-0.06499 0.11351,-0.09705c0.07365,-0.06585 0.14644,-0.13257 0.22009,-0.1993c0.03553,-0.03293 0.07192,-0.06672 0.10831,-0.10051c0.07019,-0.06845 0.14037,-0.13777 0.21143,-0.20709c0.03466,-0.03466 0.06932,-0.06932 0.10398,-0.10398c0.06759,-0.07192 0.13517,-0.14384 0.20276,-0.21576c0.03379,-0.03639 0.06759,-0.07192 0.10051,-0.10831c0.06585,-0.07452 0.13084,-0.1499 0.19583,-0.22442c0.03206,-0.03813 0.06499,-0.07539 0.09705,-0.11351c0.06325,-0.07799 0.12564,-0.15597 0.1889,-0.23395c0.03119,-0.03899 0.06239,-0.07885 0.09358,-0.11784c0.06065,-0.08145 0.12131,-0.1629 0.18196,-0.24435c0.03033,-0.04073 0.06065,-0.08145 0.09098,-0.12304c0.05892,-0.08492 0.11784,-0.16983 0.17677,-0.25475c0.02946,-0.04246 0.05806,-0.08578 0.08752,-0.12911c0.05719,-0.08838 0.11438,-0.17677 0.17157,-0.26602c0.02859,-0.04419 0.05719,-0.08925 0.08578,-0.13431c0.05546,-0.09272 0.11178,-0.18543 0.16723,-0.27815c0.02773,-0.04679 0.05546,-0.09358 0.08318,-0.14037c0.05459,-0.09705 0.10918,-0.1941 0.16377,-0.29114c0.02686,-0.04852 0.05372,-0.09791 0.08145,-0.14644c0.05286,-0.10138 0.10658,-0.20276 0.1603,-0.30414c0.02599,-0.05112 0.05286,-0.10225 0.07972,-0.15424c0.05286,-0.10571 0.10485,-0.21143 0.1577,-0.31714c0.02599,-0.05372 0.05199,-0.10745 0.07885,-0.16117c0.05199,-0.11005 0.10398,-0.22096 0.1551,-0.33187c0.026,-0.05632 0.05199,-0.11178 0.07799,-0.1681c0.05199,-0.11524 0.10311,-0.23136 0.15424,-0.3466c0.02599,-0.05892 0.05199,-0.11698 0.07712,-0.1759c0.05112,-0.12131 0.10225,-0.24175 0.15424,-0.36306c0.02513,-0.06065 0.05112,-0.12218 0.07625,-0.18283c0.05112,-0.12651 0.10225,-0.25302 0.15337,-0.37953c0.02599,-0.06325 0.05112,-0.12738 0.07712,-0.1915c0.05112,-0.13171 0.10225,-0.26342 0.15337,-0.39599c0.07798,-0.20449 0.1551,-0.40899 0.23222,-0.61348c0.0026,-0.0078 0.00607,-0.0156 0.00867,-0.0234c0.01213,-0.01126 0.02426,-0.02253 0.03553,-0.03379c0.0234,-0.0078 0.04679,-0.01473 0.06932,-0.02166c0.00867,0 0.01733,0 0.02599,0c0.01473,0.00693 0.02946,0.01386 0.04419,0.02166z" stroke-linecap="round"/>
</g>
		<g id="5fec6870-2276-40f3-a7b0-e374b7c69976-child-0">
<path style="stroke: rgb(193,193,193); stroke-width: 0; stroke-dasharray: none; stroke-linecap: butt; stroke-dashoffset: 0; stroke-linejoin: miter; stroke-miterlimit: 4; fill: none; fill-rule: evenodd; opacity: 1;" transform="matrix(0.08665 0 0 0.08665 78.904146 367.050613) matrix(1 0 0 1 0 0)  translate(-132.330059, -132.335)" d="M 263.75 133.65 C 186.61 162.34 162.34 186.65 133.65 263.75 C 133.45 264.30 132.92 264.67 132.34 264.67 C 131.75 264.67 131.22 264.30 131.02 263.75 C 102.33 186.61 78.02 162.34 0.92 133.65 C 0.37 133.45 0.00 132.92 0.00 132.34 C 0.00 131.75 0.37 131.22 0.92 131.02 C 78.06 102.33 102.33 78.06 131.00 0.92 C 131.20 0.37 131.73 0.00 132.31 0.00 C 132.90 0.00 133.43 0.37 133.63 0.92 C 162.32 78.06 186.63 102.33 263.73 131.02 C 264.28 131.22 264.66 131.74 264.66 132.33 C 264.66 132.92 264.30 133.44 263.75 133.65 Z" stroke-linecap="round"/>
</g>
</g>
</g>
<g style="" id="26d5b970-45d0-4987-a0e0-c63a340d85c9">
<g style=""><path d="M-179.46265 13.85535L-216.81129 -12.66976L-178.92584 -66.01433L-168.24948 -58.43196L-198.55256 -15.76374L-171.88028 3.17899Z" fill="rgb(247, 247, 247)" transform="matrix(0.318257 0 0 0.318257 181.78314 450.138031)"/><path d="M-141.58039 33.4248L-153.36569 27.71659L-124.84454 -31.16885L-113.05923 -25.46065Z" fill="rgb(247, 247, 247)" transform="matrix(0.318257 0 0 0.318257 181.78314 450.138031)"/><path d="M-45.56443 63.59665L-58.23961 60.49444L-47.1324 15.11195Q-46.807 13.78238 -47.03465 12.50535Q-47.26229 11.22832 -47.915 10.15259Q-48.5677 9.07686 -49.60067 8.30733Q-50.63365 7.53781 -51.96321 7.2124Q-53.29278 6.88699 -54.56438 7.09248Q-55.83599 7.29797 -56.91172 7.95067Q-57.98745 8.60338 -58.75698 9.63635Q-59.5265 10.66933 -59.85191 11.99889L-70.95912 57.38138L-83.67863 54.26833L-72.57142 8.88584Q-72.24601 7.55627 -72.4515 6.28466Q-72.65699 5.01306 -73.30969 3.93733Q-73.96239 2.8616 -74.99537 2.09207Q-76.02834 1.32254 -77.35791 0.99714Q-78.68747 0.67173 -79.95908 0.87722Q-81.23068 1.08271 -82.30642 1.73541Q-83.38215 2.38811 -84.15167 3.42109Q-84.9212 4.45406 -85.24661 5.78363L-96.35381 51.16612L-109.07332 48.05306L-97.96611 2.67057Q-97.00074 -1.27381 -94.66458 -4.38946Q-92.32842 -7.50512 -89.10122 -9.46323Q-85.87403 -11.42134 -82.03163 -12.05454Q-78.18923 -12.68774 -74.24485 -11.72237Q-70.69934 -10.85462 -67.72889 -8.78886Q-64.75843 -6.72311 -62.72935 -3.68992Q-59.52881 -5.44317 -55.96223 -5.90902Q-52.39566 -6.37486 -48.85016 -5.50711Q-44.90578 -4.54173 -41.79012 -2.20557Q-38.67446 0.13059 -36.71635 3.35778Q-34.75824 6.58498 -34.12504 10.42738Q-33.49184 14.26978 -34.45722 18.21416Z" fill="rgb(247, 247, 247)" transform="matrix(0.318257 0 0 0.318257 181.78314 450.138031)"/><path d="M3.1135 66.01433L-9.97591 65.63454L-8.07827 0.23308L5.01114 0.61288Z" fill="rgb(247, 247, 247)" transform="matrix(0.318257 0 0 0.318257 181.78314 450.138031)"/><path d="M65.39413 61.15768L52.48685 63.07761L44.78702 11.31308L25.33583 14.20639L23.4092 1.25397L75.17373 -6.44586L77.10036 6.50656L57.69431 9.39315Z" fill="rgb(247, 247, 247)" transform="matrix(0.318257 0 0 0.318257 181.78314 450.138031)"/><path d="M156.61314 33.50888L114.84062 49.83956L91.01742 -11.09816L132.78994 -27.42885L137.5579 -15.2328L107.98143 -3.67008L112.74939 8.52596L132.7645 0.70119L137.53247 12.89723L117.51735 20.72201L122.2687 32.87556L151.84517 21.31283Z" fill="rgb(247, 247, 247)" transform="matrix(0.318257 0 0 0.318257 181.78314 450.138031)"/><path d="M211.02884 -38.59634Q213.59652 -34.88005 215.01246 -30.78392Q216.4284 -26.68778 216.72602 -22.48448Q217.02365 -18.28118 216.28248 -14.13657Q215.54131 -9.99195 213.75724 -6.15275Q211.97318 -2.31355 209.19979 1.01684Q206.42641 4.34723 202.71011 6.91491L186.49355 18.11936L149.30102 -35.71062L165.51758 -46.91507Q169.23388 -49.48275 173.33001 -50.89869Q177.42614 -52.31462 181.64821 -52.62522Q185.87028 -52.93582 190.00909 -52.16291Q194.14791 -51.39 197.97414 -49.62471Q201.80037 -47.85941 205.13076 -45.08602Q208.46115 -42.31264 211.02884 -38.59634ZM200.25533 -31.15265Q197.94701 -34.49356 194.66645 -36.55269Q191.38589 -38.61182 187.67263 -39.29054Q183.95937 -39.96927 180.13078 -39.20958Q176.30219 -38.44989 172.96127 -36.14156L167.59329 -32.43268L189.89844 -0.14971L195.26642 -3.85859Q198.60733 -6.16691 200.68523 -9.46044Q202.76313 -12.75397 203.44185 -16.46723Q204.12057 -20.18049 203.34212 -23.99611Q202.56366 -27.81174 200.25533 -31.15265Z" fill="rgb(247, 247, 247)" transform="matrix(0.318257 0 0 0.318257 181.78314 450.138031)"/><path d="" fill="rgb(52, 154, 255)" transform="matrix(0.318257 0 0 0.318257 181.78314 450.138031)"/></g></g>
<g style="" id="540adbe3-c985-49cb-b19c-3736a5c75577">
<g style=""><path d="M-331.38456 113.82078Q-335.08059 112.13871 -337.67723 109.25256Q-340.27386 106.36642 -341.59765 102.83137Q-342.92144 99.29632 -342.85923 95.41451Q-342.79703 91.5327 -341.11496 87.83666L-328.67898 60.5109L-316.7603 65.93511L-329.19628 93.26087Q-329.76327 94.50672 -329.79784 95.79436Q-329.83242 97.082 -329.39116 98.26035Q-328.9499 99.4387 -328.07805 100.3869Q-327.20621 101.3351 -325.96035 101.9021Q-324.7145 102.46909 -323.40609 102.51311Q-322.09769 102.55714 -320.91934 102.11588Q-319.74099 101.67462 -318.79279 100.80277Q-317.84458 99.93093 -317.27759 98.68507L-311.85339 86.76639Q-310.17132 83.07035 -307.29649 80.4435Q-304.42166 77.81665 -300.88661 76.49287Q-297.35157 75.16908 -293.45844 75.2615Q-289.56531 75.35392 -285.86927 77.03599Q-282.17324 78.71806 -279.56715 81.58344Q-276.96107 84.44882 -275.63728 87.98386Q-274.31349 91.51891 -274.38515 95.42149Q-274.4568 99.32406 -276.13887 103.0201L-288.17796 129.47376L-300.09664 124.04956L-288.05755 97.5959Q-287.49056 96.35004 -287.45599 95.0624Q-287.42141 93.77477 -287.86267 92.59642Q-288.30393 91.41807 -289.17578 90.46986Q-290.04762 89.52166 -291.29348 88.95467Q-292.53933 88.38768 -293.82697 88.3531Q-295.11461 88.31852 -296.29296 88.75979Q-297.47131 89.20105 -298.41951 90.07289Q-299.36772 90.94474 -299.93471 92.19059L-305.35891 104.10927Q-307.04098 107.80531 -309.92713 110.40195Q-312.81327 112.99858 -316.34832 114.32237Q-319.88337 115.64616 -323.78594 115.5745Q-327.68852 115.50285 -331.38456 113.82078Z" fill="rgb(247, 247, 247)" transform="matrix(0.318257 0 0 0.318257 184.73816 281.341064)"/><path d="M-230.7888 4.84865Q-227.65117 7.42651 -225.85403 10.88125Q-224.05688 14.33599 -223.68894 18.0928Q-223.321 21.84961 -224.4137 25.58738Q-225.50641 29.32516 -228.08426 32.46279Q-230.40144 35.28313 -233.51746 37.06331Q-236.63348 38.84349 -240.24612 39.3594Q-240.05131 43.00349 -241.20757 46.42332Q-242.36384 49.84314 -244.68101 52.66348Q-247.25886 55.80111 -250.71361 57.59826Q-254.16835 59.3954 -257.92515 59.76335Q-261.68196 60.13129 -265.41974 59.03858Q-269.15751 57.94587 -272.29514 55.36802L-308.39551 25.70822L-300.08266 15.59024L-263.98229 45.25005Q-262.92466 46.11898 -261.67181 46.49875Q-260.41896 46.87852 -259.16669 46.75587Q-257.91442 46.63322 -256.77355 46.03522Q-255.63267 45.43722 -254.76373 44.37959Q-253.89479 43.32197 -253.52951 42.08674Q-253.16422 40.85152 -253.28687 39.59925Q-253.40952 38.34698 -254.02514 37.19162Q-254.64077 36.03626 -255.6984 35.16732L-291.79877 5.50752L-283.48592 -4.61045L-247.38554 25.04935Q-246.32792 25.91829 -245.07507 26.29806Q-243.82222 26.67782 -242.56995 26.55517Q-241.31768 26.43253 -240.1768 25.83453Q-239.03592 25.23653 -238.16698 24.1789Q-237.29805 23.12127 -236.93276 21.88605Q-236.56748 20.65083 -236.69013 19.39856Q-236.81277 18.14629 -237.41392 16.9733Q-238.01506 15.80031 -239.07269 14.93137L-275.17306 -14.72843L-266.88917 -24.81115Z" fill="rgb(247, 247, 247)" transform="matrix(0.318257 0 0 0.318257 184.73816 281.341064)"/><path d="M-161.3914 -24.96878L-197.81909 1.19718L-235.98998 -51.94352L-199.56229 -78.10948L-191.92279 -67.47393L-217.71493 -48.94747L-210.07543 -38.31192L-192.62126 -50.84922L-184.98176 -40.21367L-202.43592 -27.67636L-194.82304 -17.07787L-169.0309 -35.60433Z" fill="rgb(247, 247, 247)" transform="matrix(0.318257 0 0 0.318257 184.73816 281.341064)"/><path d="M-100.52637 -53.51818L-141.80748 -35.98236L-167.38872 -96.20321L-126.10762 -113.73903L-120.9878 -101.68646L-150.21633 -89.27046L-145.09652 -77.21789L-125.31686 -85.6201L-120.19705 -73.56753L-139.9767 -65.16532L-134.87472 -53.15475L-105.64619 -65.57075Z" fill="rgb(247, 247, 247)" transform="matrix(0.318257 0 0 0.318257 184.73816 281.341064)"/><path d="M-75.22581 -113.98187L-70.81851 -88.16552L-57.91033 -90.36918Q-55.25674 -90.82219 -53.09074 -92.23342Q-50.92473 -93.64466 -49.47011 -95.69818Q-48.01549 -97.7517 -47.40663 -100.28571Q-46.79778 -102.81973 -47.25079 -105.47332Q-47.70381 -108.12692 -49.11888 -110.31541Q-50.53395 -112.5039 -52.58747 -113.95852Q-54.641 -115.41314 -57.15252 -116.02584Q-59.66404 -116.63853 -62.31764 -116.18552ZM-66.41888 -62.39416L-79.32705 -60.1905L-90.33763 -124.68638L-64.52129 -129.09369Q-60.96817 -129.70027 -57.5275 -129.33877Q-54.08684 -128.97727 -50.94292 -127.77823Q-47.79899 -126.57919 -45.03463 -124.62104Q-42.27028 -122.6629 -40.09226 -120.07236Q-37.91425 -117.48181 -36.43172 -114.35595Q-34.9492 -111.23009 -34.34262 -107.67697Q-33.43659 -102.36978 -34.65814 -97.32425Q-35.8797 -92.27871 -38.78894 -88.17167Q-41.69818 -84.06462 -46.05267 -81.23832Q-50.40717 -78.41201 -55.71436 -77.50598L-68.62253 -75.30233Z" fill="rgb(247, 247, 247)" transform="matrix(0.318257 0 0 0.318257 184.73816 281.341064)"/><path d="" fill="rgb(247, 247, 247)" transform="matrix(0.318257 0 0 0.318257 184.73816 281.341064)"/><path d="M86.90492 -63.80764Q81.65052 -60.87395 75.68761 -59.94726Q69.7247 -59.02057 63.77856 -60.23244Q59.21836 -61.16185 55.23493 -63.20767Q51.25151 -65.2535 48.00504 -68.17356Q44.75857 -71.09361 42.33804 -74.75335Q39.91752 -78.41309 38.50091 -82.5434Q37.08431 -86.67372 36.76062 -91.14008Q36.43693 -95.60643 37.36634 -100.16662Q38.29575 -104.72682 40.34613 -108.7326Q42.39651 -112.73838 45.31657 -115.98485Q48.23663 -119.23132 51.89636 -121.65185Q55.5561 -124.07237 59.68642 -125.48898Q63.81674 -126.90558 68.28309 -127.22927Q72.74944 -127.55295 77.30964 -126.62355Q83.25578 -125.41167 88.38496 -122.2476Q93.51414 -119.08352 97.19219 -114.28276L88.11864 -104.49081Q85.92166 -108.10498 82.40937 -110.52044Q78.89708 -112.93589 74.69454 -113.7924Q70.4473 -114.65803 66.40852 -113.80483Q62.36975 -112.95163 59.03749 -110.76703Q55.70522 -108.58244 53.3349 -105.17736Q50.96458 -101.77229 50.10807 -97.56975Q49.25156 -93.36722 50.10931 -89.35079Q50.96707 -85.33437 53.17402 -81.99756Q55.38097 -78.66074 58.76369 -76.29497Q62.14641 -73.92921 66.39365 -73.06358Q70.59619 -72.20707 74.77364 -73.05529Q78.9511 -73.9035 82.38729 -76.36959Z" fill="rgb(247, 247, 247)" transform="matrix(0.318257 0 0 0.318257 184.73816 281.341064)"/><path d="M146.47487 -30.90883L104.94206 -50.2357L132.54637 -109.55647L144.4188 -104.03175L122.3392 -56.58341L151.99959 -42.78126Z" fill="rgb(247, 247, 247)" transform="matrix(0.318257 0 0 0.318257 184.73816 281.341064)"/><path d="M199.45021 6.77438L163.7714 -20.40388L203.41902 -72.4521L239.09783 -45.27385L231.16277 -34.85695L205.90087 -54.10014L197.96582 -43.68324L215.06116 -30.6609L207.1261 -20.244L190.03077 -33.26633L182.12336 -22.88573L207.38526 -3.64253Z" fill="rgb(247, 247, 247)" transform="matrix(0.318257 0 0 0.318257 184.73816 281.341064)"/><path d="M243.74551 14.84061L253.8496 6.51089Q255.92675 4.79851 258.42809 4.06691Q260.92943 3.33531 263.43437 3.57643Q265.93931 3.81755 268.25518 5.01283Q270.57104 6.20812 272.28342 8.28526Q273.9958 10.36241 274.7274 12.86375Q275.45899 15.36509 275.21787 17.87003Q274.97676 20.37497 273.78147 22.69084Q272.58619 25.0067 270.50904 26.71908L260.40495 35.0488ZM278.83876 36.82318Q283.02826 33.36939 285.40123 28.75218Q287.77419 24.13497 288.25643 19.12508Q288.73866 14.11519 287.28998 9.13012Q285.8413 4.14505 282.38751 -0.04445Q278.93373 -4.23396 274.31652 -6.60692Q269.6993 -8.97989 264.70393 -9.44452Q259.70855 -9.90915 254.72348 -8.46047Q249.73841 -7.01179 245.54891 -3.558L215.27183 21.40213L223.57252 31.47102L233.67662 23.1413L250.33605 43.34949L240.23196 51.67921L248.56168 61.78331Z" fill="rgb(247, 247, 247)" transform="matrix(0.318257 0 0 0.318257 184.73816 281.341064)"/><path d="M283.63061 129.44921L277.67997 116.76857L305.95299 75.62913L266.96105 93.92689L261.39806 82.07235L320.62947 54.27681L326.58012 66.95746L298.26579 108.11628L337.29904 89.79914L342.86202 101.65368Z" fill="rgb(247, 247, 247)" transform="matrix(0.318257 0 0 0.318257 184.73816 281.341064)"/></g></g>
<g id="abbe476d-efe9-4037-a961-8937b0166775">
<g style="">
		<g id="abbe476d-efe9-4037-a961-8937b0166775-child-0">
<path style="stroke: rgb(193,193,193); stroke-width: 0; stroke-dasharray: none; stroke-linecap: butt; stroke-dashoffset: 0; stroke-linejoin: miter; stroke-miterlimit: 4; fill: rgb(0,0,0); fill-rule: nonzero; opacity: 1;" transform="matrix(0.178487 0 0 0.178487 183.919594 354.732891) matrix(1 0 0 1 0 0)  translate(-256, -256)" d="M 512.00 255.00 C 512.00 234.05 494.95 217.00 474.00 217.00 L 455.87 217.00 C 450.03 193.54 432.52 174.05 409.35 166.03 C 388.31 158.75 374.17 138.89 374.17 116.62 L 374.17 111.94 C 383.16 120.13 395.11 125.14 408.21 125.14 C 413.73 125.14 418.21 120.66 418.21 115.14 C 418.21 109.62 413.73 105.14 408.21 105.14 C 391.84 105.14 378.43 92.21 377.66 76.03 L 390.03 65.19 L 439.39 65.19 C 449.65 65.19 458.00 56.84 458.00 46.58 L 458.00 18.61 C 458.00 8.35 449.65 0.00 439.39 0.00 L 306.49 0.00 C 265.34 0.00 231.87 33.48 231.87 74.62 L 231.87 86.83 C 231.87 90.51 233.90 93.90 237.15 95.64 C 238.63 96.43 240.25 96.83 241.87 96.83 C 243.81 96.83 245.74 96.26 247.41 95.15 C 257.81 88.22 269.92 84.55 282.42 84.55 L 283.59 84.55 L 283.59 114.75 C 270.73 147.55 262.58 181.89 259.32 217.00 L 228.00 217.00 L 228.00 158.03 C 228.00 138.00 213.78 120.45 194.26 116.32 C 194.23 116.31 194.16 116.30 194.13 116.29 C 186.60 114.69 180.58 109.36 177.82 102.50 C 181.62 101.09 184.34 97.44 184.34 93.14 L 184.34 50.00 C 184.34 46.00 181.98 42.56 178.59 40.96 L 178.59 19.00 C 178.59 8.52 170.06 -0.00 159.59 -0.00 L 116.41 -0.00 C 105.93 -0.00 97.41 8.52 97.41 19.00 L 97.41 40.96 C 94.02 42.56 91.66 46.00 91.66 50.00 L 91.66 93.14 C 91.66 97.42 94.35 101.06 98.13 102.48 C 95.37 109.35 89.35 114.70 81.81 116.30 C 62.22 120.45 48.00 138.00 48.00 158.03 L 48.00 217.00 L 38.00 217.00 C 17.05 217.00 -0.00 234.05 -0.00 255.00 C -0.00 270.75 9.63 284.28 23.31 290.04 L 49.02 455.84 C 51.45 471.47 59.40 485.75 71.41 496.04 C 83.42 506.33 98.75 512.00 114.56 512.00 L 211.00 512.00 C 216.52 512.00 221.00 507.52 221.00 502.00 C 221.00 496.48 216.52 492.00 211.00 492.00 L 114.56 492.00 C 91.56 492.00 72.31 475.50 68.78 452.77 L 44.00 293.00 L 127.87 293.00 L 127.87 359.70 C 127.87 376.25 141.34 389.72 157.89 389.72 C 161.33 389.72 164.63 389.13 167.71 388.07 L 167.71 412.99 C 167.71 429.55 181.18 443.02 197.74 443.02 C 201.62 443.02 205.33 442.27 208.73 440.92 C 212.10 453.82 223.85 463.36 237.79 463.36 C 251.72 463.36 263.47 453.82 266.84 440.92 C 270.25 442.27 273.96 443.02 277.84 443.02 C 294.40 443.02 307.87 429.55 307.87 412.99 L 307.87 354.51 C 312.14 356.45 316.88 357.54 321.87 357.54 C 340.62 357.54 355.87 342.28 355.87 323.54 L 355.87 293.00 L 468.00 293.00 L 443.21 452.77 C 439.69 475.50 420.44 492.00 397.44 492.00 L 301.00 492.00 C 295.48 492.00 291.00 496.48 291.00 502.00 C 291.00 507.52 295.48 512.00 301.00 512.00 L 397.44 512.00 C 413.25 512.00 428.58 506.33 440.59 496.04 C 452.60 485.75 460.56 471.47 462.98 455.84 L 488.70 290.04 C 502.37 284.28 512.00 270.75 512.00 255.00 z M 438.00 45.19 L 418.33 45.19 L 418.33 20.00 L 438.00 20.00 z M 252.04 70.29 C 254.25 42.19 277.82 20.00 306.49 20.00 L 398.33 20.00 L 398.33 45.19 L 386.27 45.19 C 383.85 45.19 381.50 46.07 379.68 47.67 L 360.40 64.55 L 282.42 64.55 C 271.93 64.55 261.66 66.51 252.04 70.29 z M 354.17 84.55 L 354.17 106.62 L 303.59 106.62 L 303.59 84.55 z M 300.45 126.62 L 354.86 126.62 C 358.57 153.22 376.91 175.96 402.81 184.93 C 417.96 190.17 429.77 202.20 435.02 217.00 L 279.41 217.00 C 282.45 186.03 289.50 155.70 300.44 126.62 z M 111.66 60.00 L 164.34 60.00 L 164.34 83.14 L 111.66 83.14 z M 117.41 20.00 L 158.59 20.00 L 158.59 40.00 L 117.41 40.00 z M 68.00 158.03 C 68.00 147.39 75.55 138.07 85.96 135.86 C 102.54 132.34 115.27 119.23 118.79 103.14 L 157.15 103.14 C 160.66 119.23 173.39 132.34 189.91 135.84 C 189.94 135.84 190.01 135.86 190.04 135.87 C 200.45 138.07 208.00 147.39 208.00 158.03 L 208.00 217.00 L 68.00 217.00 z M 38.00 273.00 C 28.08 273.00 20.00 264.93 20.00 255.00 C 20.00 245.07 28.08 237.00 38.00 237.00 L 127.87 237.00 L 127.87 273.00 z M 335.87 323.54 C 335.87 331.26 329.59 337.54 321.87 337.54 C 314.15 337.54 307.87 331.26 307.87 323.54 L 307.87 285.63 C 307.87 280.11 303.39 275.63 297.87 275.63 L 297.87 275.63 L 297.87 275.63 C 292.34 275.63 287.87 280.11 287.87 285.63 L 287.87 413.00 C 287.87 418.52 283.37 423.02 277.84 423.02 C 272.31 423.02 267.82 418.52 267.82 413.00 L 267.82 325.63 C 267.82 320.11 263.34 315.63 257.82 315.63 C 252.29 315.63 247.82 320.11 247.82 325.63 L 247.82 433.34 C 247.82 438.87 243.32 443.37 237.79 443.37 C 232.26 443.37 227.76 438.87 227.76 433.34 L 227.77 325.63 C 227.77 320.11 223.29 315.63 217.77 315.63 L 217.76 315.63 C 212.24 315.63 207.76 320.11 207.76 325.63 L 207.76 413.01 C 207.75 418.53 203.26 423.02 197.74 423.02 C 192.21 423.02 187.71 418.52 187.71 413.00 L 187.92 325.30 C 187.92 319.78 183.44 315.30 177.92 315.30 C 174.35 315.30 171.22 317.18 169.45 320.00 C 168.36 321.60 167.71 323.54 167.71 325.63 L 167.71 361.73 C 166.78 366.29 162.73 369.73 157.90 369.73 C 152.37 369.73 147.87 365.23 147.87 359.70 L 147.87 237.00 L 325.62 237.00 L 335.87 271.54 L 335.87 323.54 z M 474.00 273.00 L 355.87 273.00 L 355.87 270.09 C 355.87 269.13 355.73 268.17 355.46 267.24 L 346.48 237.00 L 474.00 237.00 C 483.93 237.00 492.00 245.07 492.00 255.00 C 492.00 264.93 483.93 273.00 474.00 273.00 z" stroke-linecap="round"/>
</g>
		<g id="abbe476d-efe9-4037-a961-8937b0166775-child-1">
<path style="stroke: rgb(193,193,193); stroke-width: 0; stroke-dasharray: none; stroke-linecap: butt; stroke-dashoffset: 0; stroke-linejoin: miter; stroke-miterlimit: 4; fill: rgb(0,0,0); fill-rule: nonzero; opacity: 1;" transform="matrix(0.178487 0 0 0.178487 183.919594 354.732891) matrix(1 0 0 1 0 246)  translate(-256, -502)" d="M 256.00 492.00 C 253.37 492.00 250.79 493.07 248.93 494.93 C 247.07 496.79 246.00 499.37 246.00 502.00 C 246.00 504.63 247.07 507.21 248.93 509.07 C 250.79 510.93 253.37 512.00 256.00 512.00 C 258.63 512.00 261.21 510.93 263.07 509.07 C 264.93 507.21 266.00 504.63 266.00 502.00 C 266.00 499.37 264.93 496.79 263.07 494.93 C 261.21 493.07 258.63 492.00 256.00 492.00 z" stroke-linecap="round"/>
</g>
</g>
</g>
<g style="" id="a1cdbe42-c1e6-4407-bd30-6fe345638530">
<g style=""><path d="M-526.14572 44.52482Q-536.03586 44.52482 -543.72818 42.05229Q-551.42051 39.57976 -558.15129 33.67315Q-561.86009 30.37644 -561.86009 26.39292Q-561.86009 23.23357 -559.52492 20.82972Q-557.18975 18.42587 -553.89304 18.42587Q-551.28314 18.42587 -549.2227 20.07422Q-543.72818 24.6072 -538.50839 26.66764Q-533.2886 28.72809 -526.14572 28.72809Q-518.4534 28.72809 -512.8902 25.29401Q-507.327 21.85994 -507.327 16.77751Q-507.327 10.59618 -512.82152 7.09342Q-518.31604 3.59067 -530.26661 1.80495Q-560.3491 -2.59067 -560.3491 -26.21709Q-560.3491 -34.87096 -555.81612 -41.25833Q-551.28314 -47.64571 -543.45346 -51.0111Q-535.62377 -54.3765 -526.00836 -54.3765Q-517.3545 -54.3765 -509.73085 -51.7666Q-502.10721 -49.1567 -497.02478 -44.89845Q-493.04125 -41.7391 -493.04125 -37.61822Q-493.04125 -34.45887 -495.37642 -32.05502Q-497.71159 -29.65117 -500.87094 -29.65117Q-502.93139 -29.65117 -504.57974 -30.88743Q-508.15118 -33.77205 -514.53856 -36.17591Q-520.92593 -38.57976 -526.00836 -38.57976Q-534.66223 -38.57976 -539.40125 -35.35173Q-544.14027 -32.1237 -544.14027 -26.90391Q-544.14027 -20.9973 -539.26389 -17.97531Q-534.3875 -14.95333 -523.94792 -13.03025Q-512.1347 -10.9698 -505.06051 -7.74178Q-497.98632 -4.51375 -494.41488 1.04945Q-490.84345 6.61265 -490.84345 15.81597Q-490.84345 24.46984 -495.71983 30.99457Q-500.59622 37.51931 -508.70063 41.02207Q-516.80504 44.52482 -526.14572 44.52482Z" fill="rgb(52, 154, 255)" transform="matrix(0.808078 0 0 0.808078 817.303551 304.915768)"/><path d="M-360.07392 -53.41495Q-356.77721 -53.41495 -353.96127 -50.87374Q-351.14533 -48.33253 -351.14533 -44.48636Q-351.14533 -43.2501 -351.55742 -41.7391L-378.61792 37.9314Q-379.4421 40.26657 -381.50254 41.6402Q-383.56299 43.01383 -386.03552 43.1512Q-388.50805 43.1512 -390.70586 41.77757Q-392.90367 40.40394 -394.13993 37.79404L-413.64547 -6.57419L-433.28837 37.79404Q-434.52464 40.40394 -436.72245 41.77757Q-438.92025 43.1512 -441.39279 43.1512Q-443.86532 43.01383 -445.92576 41.6402Q-447.98621 40.26657 -448.81039 37.9314L-475.87089 -41.7391Q-476.28298 -43.2501 -476.28298 -44.48636Q-476.28298 -48.33253 -473.46704 -50.87374Q-470.65109 -53.41495 -467.21702 -53.41495Q-464.46976 -53.41495 -462.27196 -51.97264Q-460.07415 -50.53033 -459.24997 -48.0578L-438.78289 14.03025L-420.92571 -28.82699Q-419.82681 -31.29952 -417.76636 -32.74183Q-415.70592 -34.18414 -413.09602 -34.04678Q-410.48612 -34.18414 -408.49436 -32.74183Q-406.5026 -31.29952 -405.4037 -28.82699L-388.50805 13.61816L-368.17834 -48.0578Q-367.35416 -50.53033 -365.08767 -51.97264Q-362.82118 -53.41495 -360.07392 -53.41495Z" fill="rgb(52, 154, 255)" transform="matrix(0.808078 0 0 0.808078 817.303551 304.915768)"/><path d="M-277.38143 27.35446Q-273.80999 27.35446 -271.40614 29.75831Q-269.00229 32.16216 -269.00229 35.32151Q-269.00229 38.75558 -271.40614 40.95339Q-273.80999 43.1512 -277.38143 43.1512L-323.39802 43.1512Q-326.96945 43.1512 -329.37331 40.74734Q-331.77716 38.34349 -331.77716 34.77206L-331.77716 -44.62373Q-331.77716 -48.19516 -329.37331 -50.59901Q-326.96945 -53.00287 -323.39802 -53.00287L-277.38143 -53.00287Q-273.80999 -53.00287 -271.40614 -50.73638Q-269.00229 -48.46989 -269.00229 -44.89845Q-269.00229 -41.46438 -271.33746 -39.33525Q-273.67263 -37.20613 -277.38143 -37.20613L-314.60679 -37.20613L-314.60679 -13.85443L-283.56276 -13.85443Q-279.99133 -13.85443 -277.58748 -11.58794Q-275.18362 -9.32145 -275.18362 -5.75001Q-275.18362 -2.31594 -277.51879 -0.18681Q-279.85396 1.94231 -283.56276 1.94231L-314.60679 1.94231L-314.60679 27.35446L-277.38143 27.35446Z" fill="rgb(52, 154, 255)" transform="matrix(0.808078 0 0 0.808078 817.303551 304.915768)"/><path d="M-191.94168 27.35446Q-188.37024 27.35446 -185.96639 29.75831Q-183.56254 32.16216 -183.56254 35.32151Q-183.56254 38.75558 -185.96639 40.95339Q-188.37024 43.1512 -191.94168 43.1512L-237.95827 43.1512Q-241.5297 43.1512 -243.93355 40.74734Q-246.33741 38.34349 -246.33741 34.77206L-246.33741 -44.62373Q-246.33741 -48.19516 -243.93355 -50.59901Q-241.5297 -53.00287 -237.95827 -53.00287L-191.94168 -53.00287Q-188.37024 -53.00287 -185.96639 -50.73638Q-183.56254 -48.46989 -183.56254 -44.89845Q-183.56254 -41.46438 -185.89771 -39.33525Q-188.23288 -37.20613 -191.94168 -37.20613L-229.16704 -37.20613L-229.16704 -13.85443L-198.12301 -13.85443Q-194.55158 -13.85443 -192.14772 -11.58794Q-189.74387 -9.32145 -189.74387 -5.75001Q-189.74387 -2.31594 -192.07904 -0.18681Q-194.41421 1.94231 -198.12301 1.94231L-229.16704 1.94231L-229.16704 27.35446L-191.94168 27.35446Z" fill="rgb(52, 154, 255)" transform="matrix(0.808078 0 0 0.808078 817.303551 304.915768)"/><path d="M-121.19976 -53.00287Q-114.19425 -53.00287 -107.87556 -48.8133Q-101.55686 -44.62373 -97.7107 -37.54953Q-93.86454 -30.47534 -93.86454 -22.0962Q-93.86454 -13.85443 -97.7107 -6.71155Q-101.55686 0.43132 -107.87556 4.62089Q-114.19425 8.81046 -121.19976 8.81046L-145.10092 8.81046L-145.10092 34.77206Q-145.10092 38.48086 -147.29872 40.81603Q-149.49653 43.1512 -153.06797 43.1512Q-156.50204 43.1512 -158.69985 40.74734Q-160.89765 38.34349 -160.89765 34.77206L-160.89765 -44.62373Q-160.89765 -48.19516 -158.4938 -50.59901Q-156.08995 -53.00287 -152.51851 -53.00287L-121.19976 -53.00287ZM-121.19976 -6.84892Q-118.58987 -6.84892 -116.04865 -9.04672Q-113.50744 -11.24453 -111.92776 -14.74729Q-110.34809 -18.25004 -110.34809 -22.0962Q-110.34809 -25.94237 -111.92776 -29.44512Q-113.50744 -32.94788 -116.04865 -35.077Q-118.58987 -37.20613 -121.19976 -37.20613L-145.10092 -37.20613L-145.10092 -6.84892L-121.19976 -6.84892Z" fill="rgb(52, 154, 255)" transform="matrix(0.808078 0 0 0.808078 817.303551 304.915768)"/><path d="" fill="rgb(52, 154, 255)" transform="matrix(0.808078 0 0 0.808078 817.303551 304.915768)"/><path d="M41.43796 -48.33253Q45.69622 -46.13472 45.69622 -41.32702Q45.69622 -38.44239 43.63577 -35.69513Q41.43796 -32.81051 38.00389 -32.81051Q35.66872 -32.81051 33.33355 -34.04678Q26.60277 -37.20613 18.77308 -37.20613Q9.15767 -37.20613 2.0148 -33.15392Q-5.12807 -29.10171 -8.97424 -21.7528Q-12.8204 -14.40388 -12.8204 -4.92584Q-12.8204 11.28299 -4.09785 19.66213Q4.62469 28.04127 18.77308 28.04127Q27.15222 28.04127 33.33355 24.88192Q35.80608 23.78302 37.72916 23.78302Q41.3006 23.78302 43.77313 26.80501Q45.83358 29.4149 45.83358 32.43689Q45.83358 34.63469 44.73467 36.42041Q43.63577 38.20613 41.57533 39.16767Q30.86102 44.52482 18.77308 44.52482Q5.31151 44.52482 -5.95225 38.82426Q-17.21601 33.1237 -23.9468 21.9973Q-30.67758 10.8709 -30.67758 -4.92584Q-30.67758 -18.93686 -24.29021 -30.06325Q-17.90283 -41.18965 -6.63907 -47.43967Q4.62469 -53.68968 18.77308 -53.68968Q30.99838 -53.68968 41.43796 -48.33253Z" fill="rgb(52, 154, 255)" transform="matrix(0.808078 0 0 0.808078 817.303551 304.915768)"/><path d="M120.14693 27.07973Q123.71837 27.07973 126.12222 29.34622Q128.52607 31.61271 128.52607 35.18414Q128.52607 38.61822 126.12222 40.88471Q123.71837 43.1512 120.14693 43.1512L75.50397 43.1512Q71.93254 43.1512 69.52869 40.74734Q67.12483 38.34349 67.12483 34.77206L67.12483 -44.62373Q67.12483 -48.19516 69.59737 -50.59901Q72.0699 -53.00287 75.91606 -53.00287Q79.35014 -53.00287 81.82267 -50.59901Q84.2952 -48.19516 84.2952 -44.62373L84.2952 27.07973L120.14693 27.07973Z" fill="rgb(52, 154, 255)" transform="matrix(0.808078 0 0 0.808078 817.303551 304.915768)"/><path d="M205.58668 27.35446Q209.15812 27.35446 211.56197 29.75831Q213.96582 32.16216 213.96582 35.32151Q213.96582 38.75558 211.56197 40.95339Q209.15812 43.1512 205.58668 43.1512L159.5701 43.1512Q155.99866 43.1512 153.59481 40.74734Q151.19096 38.34349 151.19096 34.77206L151.19096 -44.62373Q151.19096 -48.19516 153.59481 -50.59901Q155.99866 -53.00287 159.5701 -53.00287L205.58668 -53.00287Q209.15812 -53.00287 211.56197 -50.73638Q213.96582 -48.46989 213.96582 -44.89845Q213.96582 -41.46438 211.63065 -39.33525Q209.29548 -37.20613 205.58668 -37.20613L168.36133 -37.20613L168.36133 -13.85443L199.40535 -13.85443Q202.97679 -13.85443 205.38064 -11.58794Q207.78449 -9.32145 207.78449 -5.75001Q207.78449 -2.31594 205.44932 -0.18681Q203.11415 1.94231 199.40535 1.94231L168.36133 1.94231L168.36133 27.35446L205.58668 27.35446Z" fill="rgb(52, 154, 255)" transform="matrix(0.808078 0 0 0.808078 817.303551 304.915768)"/><path d="M312.04297 32.43689Q312.72978 34.2226 312.72978 35.7336Q312.72978 39.30503 310.39461 41.57152Q308.05944 43.83801 305.03746 43.83801Q302.56492 43.83801 300.57316 42.32702Q298.5814 40.81603 297.48249 38.20613L290.33962 21.58521L249.40546 21.58521L242.26259 38.34349Q241.30105 40.95339 239.30929 42.3957Q237.31752 43.83801 234.98235 43.83801Q231.41092 43.83801 229.55652 41.91493Q227.70212 39.99185 227.70212 36.69514Q227.70212 35.45887 228.11421 34.08524L262.31758 -48.0578Q263.41648 -50.80506 265.61429 -52.31605Q267.8121 -53.82704 270.55936 -53.55232Q273.03189 -53.55232 275.16101 -52.11001Q277.29014 -50.6677 278.25168 -48.0578L312.04297 32.43689ZM283.60884 5.78847L269.73518 -26.35445L256.13625 5.78847Z" fill="rgb(52, 154, 255)" transform="matrix(0.808078 0 0 0.808078 817.303551 304.915768)"/><path d="M404.2135 -53.00287Q407.51021 -53.00287 409.57066 -50.80506Q411.6311 -48.60725 411.6311 -45.31054L411.6311 34.77206Q411.6311 38.34349 409.22725 40.74734Q406.8234 43.1512 403.25196 43.1512Q401.32888 43.1512 399.47448 42.53306Q397.62008 41.91493 396.7959 40.81603L346.3837 -23.19511L346.3837 35.45887Q346.3837 38.75558 344.25458 40.95339Q342.12545 43.1512 338.69138 43.1512Q335.39467 43.1512 333.33422 40.95339Q331.27378 38.75558 331.27378 35.45887L331.27378 -44.62373Q331.27378 -48.19516 333.67763 -50.59901Q336.08148 -53.00287 339.65292 -53.00287Q341.71336 -53.00287 343.70512 -52.17869Q345.69689 -51.35451 346.65843 -49.98088L396.65854 13.75553L396.65854 -45.31054Q396.65854 -48.60725 398.78767 -50.80506Q400.91679 -53.00287 404.2135 -53.00287Z" fill="rgb(52, 154, 255)" transform="matrix(0.808078 0 0 0.808078 817.303551 304.915768)"/></g></g>
<g style="" id="c6e5d0c0-4028-45f0-a653-ff42152e5061">
<g style=""><path d="M-233.04207 24.31328Q-229.83549 24.31328 -227.67721 26.34823Q-225.51894 28.38317 -225.51894 31.58975Q-225.51894 34.673 -227.67721 36.70795Q-229.83549 38.74289 -233.04207 38.74289L-273.12432 38.74289Q-276.33091 38.74289 -278.48918 36.58462Q-280.64746 34.42634 -280.64746 31.21976L-280.64746 -40.06499Q-280.64746 -43.27157 -278.42752 -45.42985Q-276.20758 -47.58812 -272.75433 -47.58812Q-269.67108 -47.58812 -267.45114 -45.42985Q-265.2312 -43.27157 -265.2312 -40.06499L-265.2312 24.31328L-233.04207 24.31328Z" fill="rgb(52, 154, 255)" transform="matrix(0.900024 0 0 0.900024 623.938944 411.346362)"/><path d="M-189.75323 31.21976Q-189.75323 34.42634 -192.0965 36.58462Q-194.43977 38.74289 -197.52302 38.74289Q-200.85293 38.74289 -203.01121 36.58462Q-205.16948 34.42634 -205.16948 31.21976L-205.16948 -40.06499Q-205.16948 -43.27157 -202.94954 -45.42985Q-200.7296 -47.58812 -197.27636 -47.58812Q-194.19311 -47.58812 -191.97317 -45.42985Q-189.75323 -43.27157 -189.75323 -40.06499L-189.75323 31.21976Z" fill="rgb(52, 154, 255)" transform="matrix(0.900024 0 0 0.900024 623.938944 411.346362)"/><path d="M-90.2259 -47.71145Q-87.14265 -47.71145 -84.86105 -45.55318Q-82.57944 -43.3949 -82.57944 -40.18832L-82.57944 31.21976Q-82.57944 34.42634 -84.67605 36.58462Q-86.77266 38.74289 -90.2259 38.74289Q-93.67914 38.74289 -95.83742 36.64628Q-97.99569 34.54967 -97.99569 31.21976L-97.99569 -18.48224L-118.34515 12.59693Q-119.57845 14.07689 -121.18174 15.00186Q-122.78503 15.92684 -124.51165 15.80351Q-126.11494 15.92684 -127.71823 15.00186Q-129.32152 14.07689 -130.55482 12.59693L-150.90427 -19.59221L-150.90427 31.21976Q-150.90427 34.54967 -152.87755 36.64628Q-154.85083 38.74289 -158.05741 38.74289Q-161.14066 38.74289 -163.11394 36.58462Q-165.08723 34.42634 -165.08723 31.21976L-165.08723 -40.18832Q-165.08723 -43.27157 -162.80562 -45.49151Q-160.52401 -47.71145 -157.31743 -47.71145Q-155.46748 -47.71145 -153.61753 -46.78648Q-151.76758 -45.8615 -150.78094 -44.38154L-123.895 -3.06598L-96.26907 -44.38154Q-95.28243 -45.8615 -93.61748 -46.78648Q-91.95252 -47.71145 -90.2259 -47.71145Z" fill="rgb(52, 154, 255)" transform="matrix(0.900024 0 0 0.900024 623.938944 411.346362)"/><path d="M-42.49718 31.21976Q-42.49718 34.42634 -44.84045 36.58462Q-47.18372 38.74289 -50.26697 38.74289Q-53.59688 38.74289 -55.75516 36.58462Q-57.91344 34.42634 -57.91344 31.21976L-57.91344 -40.06499Q-57.91344 -43.27157 -55.69349 -45.42985Q-53.47355 -47.58812 -50.02031 -47.58812Q-46.93706 -47.58812 -44.71712 -45.42985Q-42.49718 -43.27157 -42.49718 -40.06499L-42.49718 31.21976Z" fill="rgb(52, 154, 255)" transform="matrix(0.900024 0 0 0.900024 623.938944 411.346362)"/><path d="M38.90063 -47.58812Q42.23054 -47.58812 44.32715 -45.61484Q46.42376 -43.64156 46.42376 -40.43498Q46.42376 -37.2284 44.32715 -35.31679Q42.23054 -33.40517 38.90063 -33.40517L19.53782 -33.40517L19.53782 31.21976Q19.53782 34.42634 17.19455 36.58462Q14.85128 38.74289 11.39804 38.74289Q7.9448 38.74289 5.72486 36.58462Q3.50492 34.42634 3.50492 31.21976L3.50492 -33.40517L-15.8579 -33.40517Q-19.18781 -33.40517 -21.28442 -35.37845Q-23.38103 -37.35173 -23.38103 -40.55831Q-23.38103 -43.64156 -21.22275 -45.61484Q-19.06448 -47.58812 -15.8579 -47.58812L38.90063 -47.58812Z" fill="rgb(52, 154, 255)" transform="matrix(0.900024 0 0 0.900024 623.938944 411.346362)"/><path d="M114.37861 24.55994Q117.58519 24.55994 119.74346 26.71822Q121.90174 28.87649 121.90174 31.71308Q121.90174 34.79633 119.74346 36.76961Q117.58519 38.74289 114.37861 38.74289L73.06305 38.74289Q69.85647 38.74289 67.69819 36.58462Q65.53992 34.42634 65.53992 31.21976L65.53992 -40.06499Q65.53992 -43.27157 67.69819 -45.42985Q69.85647 -47.58812 73.06305 -47.58812L114.37861 -47.58812Q117.58519 -47.58812 119.74346 -45.55318Q121.90174 -43.51823 121.90174 -40.31165Q121.90174 -37.2284 119.80513 -35.31679Q117.70852 -33.40517 114.37861 -33.40517L80.95617 -33.40517L80.95617 -12.43907L108.82876 -12.43907Q112.03534 -12.43907 114.19361 -10.40412Q116.35189 -8.36918 116.35189 -5.16259Q116.35189 -2.07934 114.25528 -0.16773Q112.15867 1.74389 108.82876 1.74389L80.95617 1.74389L80.95617 24.55994L114.37861 24.55994Z" fill="rgb(52, 154, 255)" transform="matrix(0.900024 0 0 0.900024 623.938944 411.346362)"/><path d="M179.2502 -47.58812Q190.84322 -47.58812 199.168 -41.85328Q207.49277 -36.11843 211.87099 -26.31369Q216.2492 -16.50896 216.2492 -4.42261Q216.2492 7.66373 211.87099 17.46846Q207.49277 27.2732 199.168 33.00805Q190.84322 38.74289 179.2502 38.74289L149.77432 38.74289Q146.56774 38.74289 144.40947 36.58462Q142.25119 34.42634 142.25119 31.21976L142.25119 -40.06499Q142.25119 -43.27157 144.40947 -45.42985Q146.56774 -47.58812 149.77432 -47.58812L179.2502 -47.58812ZM178.0169 24.55994Q189.1166 24.55994 194.66645 16.35849Q200.2163 8.15705 200.2163 -4.42261Q200.2163 -17.00228 194.60479 -25.20372Q188.99327 -33.40517 178.0169 -33.40517L157.66744 -33.40517L157.66744 24.55994L178.0169 24.55994Z" fill="rgb(52, 154, 255)" transform="matrix(0.900024 0 0 0.900024 623.938944 411.346362)"/></g></g>

  </svg>